<?xml version="1.0" encoding="UTF-8" standalone="no"?>
<!DOCTYPE svg PUBLIC "-//W3C//DTD SVG 1.1//EN" "http://www.w3.org/Graphics/SVG/1.1/DTD/svg11.dtd">
<svg width="100%" height="100%" viewBox="0 0 545 150" version="1.1" xmlns="http://www.w3.org/2000/svg" xmlns:xlink="http://www.w3.org/1999/xlink" xml:space="preserve" xmlns:serif="http://www.serif.com/" style="fill-rule:evenodd;clip-rule:evenodd;">
    <g transform="matrix(-1.09772,-0.00839396,0.00839396,-1.09772,346.384,137.86)">
        <g transform="matrix(-2.17195,0.0166083,-0.0166083,-2.17195,946.067,364.482)">
            <path d="M289,168.125L425.024,168.125" style="fill:none;fill-rule:nonzero;stroke:black;stroke-width:0.21px;"/>
        </g>
        <g transform="matrix(-0.910926,0.0069656,-0.0069656,-0.910926,195.183,106.995)">
            <path d="M138.842,63.296L95.079,63.296" style="fill:none;stroke:black;stroke-width:3.4px;stroke-linejoin:round;stroke-miterlimit:1.5;"/>
        </g>
        <g transform="matrix(-0.910926,0.0069656,-0.0069656,-0.910926,195.183,106.995)">
            <path d="M138.842,63.296L184.089,63.296" style="fill:none;stroke:black;stroke-width:3.4px;stroke-linejoin:round;stroke-miterlimit:1.5;"/>
        </g>
        <g transform="matrix(-0.910926,0.0069656,-0.0069656,-0.910926,195.183,106.995)">
            <path d="M138.842,63.296L138.842,33.261" style="fill:none;stroke:black;stroke-width:3.4px;stroke-linejoin:round;stroke-miterlimit:1.5;"/>
        </g>
        <g transform="matrix(-0.910926,0.0069656,-0.0069656,-0.910926,-1.39611,108.498)">
            <path d="M138.842,106.918L138.842,63.296L95.079,63.296" style="fill:none;stroke:black;stroke-width:3.4px;stroke-linejoin:round;stroke-miterlimit:1.5;"/>
        </g>
        <g transform="matrix(-0.910926,0.0069656,-0.0069656,-0.910926,-41.2611,108.803)">
            <path d="M112.993,63.296L95.079,63.296" style="fill:none;stroke:black;stroke-width:3.4px;stroke-linejoin:round;stroke-miterlimit:1.5;"/>
        </g>
        <g transform="matrix(-0.910926,0.0069656,-0.0069656,-0.910926,18.3655,108.347)">
            <path d="M138.842,63.296L138.842,33.261" style="fill:none;stroke:black;stroke-width:3.4px;stroke-linejoin:round;stroke-miterlimit:1.5;"/>
        </g>
        <g transform="matrix(-0.910926,0.0069656,-0.0069656,-0.910926,191.507,118.516)">
            <path d="M179.956,75.912L307.089,75.912" style="fill:none;stroke:rgb(255,0,0);stroke-width:3.4px;stroke-linejoin:round;stroke-miterlimit:1.5;"/>
        </g>
        <g transform="matrix(-0.00173664,-0.227109,0.227109,-0.00173664,51.7708,147.656)">
            <path d="M179.956,75.912L307.089,75.912" style="fill:none;stroke:rgb(255,0,0);stroke-width:13.64px;stroke-linejoin:round;stroke-miterlimit:1.5;"/>
        </g>
        <g transform="matrix(-0.00173664,-0.227109,0.227109,-0.00173664,51.9915,176.529)">
            <path d="M179.956,82.73L179.956,69.093L187.902,69.093L187.902,82.73L179.956,82.73ZM203.793,82.73L203.793,69.093L219.685,69.093L219.685,82.73L203.793,82.73ZM235.577,82.73L235.577,69.093L251.468,69.093L251.468,82.73L235.577,82.73ZM267.36,82.73L267.36,69.093L283.251,69.093L283.251,82.73L267.36,82.73ZM299.143,82.73L299.143,69.093L307.089,69.093L307.089,82.73L299.143,82.73Z" style="fill:rgb(255,0,0);"/>
        </g>
        <g transform="matrix(-0.00173664,-0.227109,0.227109,-0.00173664,-124.827,177.763)">
            <path d="M179.956,82.73L179.956,69.093L187.902,69.093L187.902,82.73L179.956,82.73ZM203.793,82.73L203.793,69.093L219.685,69.093L219.685,82.73L203.793,82.73ZM235.577,82.73L235.577,69.093L251.468,69.093L251.468,82.73L235.577,82.73ZM267.36,82.73L267.36,69.093L283.251,69.093L283.251,82.73L267.36,82.73ZM299.143,82.73L299.143,69.093L307.089,69.093L307.089,82.73L299.143,82.73Z" style="fill:rgb(255,0,0);"/>
        </g>
        <g transform="matrix(-0.00173664,-0.227109,0.227109,-0.00173664,-145.603,45.3634)">
            <path d="M179.956,82.73L179.956,69.093L187.902,69.093L187.902,82.73L179.956,82.73ZM203.793,82.73L203.793,69.093L219.685,69.093L219.685,82.73L203.793,82.73ZM235.577,82.73L235.577,69.093L251.468,69.093L251.468,82.73L235.577,82.73ZM267.36,82.73L267.36,69.093L283.251,69.093L283.251,82.73L267.36,82.73ZM299.143,82.73L299.143,69.093L307.089,69.093L307.089,82.73L299.143,82.73Z" style="fill:rgb(255,0,0);"/>
        </g>
        <g transform="matrix(-0.00173664,-0.227109,0.227109,-0.00173664,-125.048,148.89)">
            <path d="M179.956,75.912L307.089,75.912" style="fill:none;stroke:rgb(255,0,0);stroke-width:13.64px;stroke-linejoin:round;stroke-miterlimit:1.5;"/>
        </g>
        <g transform="matrix(0.227109,-0.00173664,0.00173664,0.227109,-235.218,35.3837)">
            <path d="M179.956,82.73L179.956,69.093L187.902,69.093L187.902,82.73L179.956,82.73ZM203.793,82.73L203.793,69.093L219.685,69.093L219.685,82.73L203.793,82.73ZM235.577,82.73L235.577,69.093L251.468,69.093L251.468,82.73L235.577,82.73ZM267.36,82.73L267.36,69.093L283.251,69.093L283.251,82.73L267.36,82.73ZM299.143,82.73L299.143,69.093L307.089,69.093L307.089,82.73L299.143,82.73Z" style="fill:rgb(255,0,0);"/>
        </g>
        <g transform="matrix(0.162932,-0.0012459,0.00173664,0.227109,-194.796,35.0746)">
            <path d="M179.956,75.912L307.089,75.912" style="fill:none;stroke:rgb(255,0,0);stroke-width:15.67px;stroke-linejoin:round;stroke-miterlimit:1.5;"/>
        </g>
        <g transform="matrix(-0.531699,0.00406575,-0.00406575,-0.531699,268.293,89.1392)">
            <path d="M179.956,75.912L307.089,75.912" style="fill:none;stroke:rgb(255,0,0);stroke-width:5.83px;stroke-linejoin:round;stroke-miterlimit:1.5;"/>
        </g>
        <g transform="matrix(-0.00173664,-0.227109,0.227109,-0.00173664,-145.392,72.9404)">
            <path d="M179.956,75.912L307.089,75.912" style="fill:none;stroke:rgb(255,0,0);stroke-width:13.64px;stroke-linejoin:round;stroke-miterlimit:1.5;"/>
        </g>
        <g transform="matrix(-0.910926,0.0069656,-0.0069656,-0.910926,359.385,105.738)">
            <path d="M117.148,86.266L117.148,63.296L95.079,63.296" style="fill:none;stroke:black;stroke-width:3.4px;stroke-linejoin:round;stroke-miterlimit:1.5;"/>
        </g>
        <g transform="matrix(-0.910926,0.0069656,-0.0069656,-0.910926,319.52,106.043)">
            <path d="M112.993,63.296L73.385,63.296" style="fill:none;stroke:black;stroke-width:3.4px;stroke-linejoin:round;stroke-miterlimit:1.5;"/>
        </g>
        <g transform="matrix(-0.910926,0.0069656,-0.0069656,-0.910926,379.146,105.587)">
            <path d="M138.842,63.296L138.842,33.261" style="fill:none;stroke:black;stroke-width:3.4px;stroke-linejoin:round;stroke-miterlimit:1.5;"/>
        </g>
        <g transform="matrix(-0.00173664,-0.227109,0.227109,-0.00173664,235.953,175.003)">
            <path d="M179.956,82.73L179.956,69.093L187.902,69.093L187.902,82.73L179.956,82.73ZM203.793,82.73L203.793,69.093L219.685,69.093L219.685,82.73L203.793,82.73ZM235.577,82.73L235.577,69.093L251.468,69.093L251.468,82.73L235.577,82.73ZM267.36,82.73L267.36,69.093L283.251,69.093L283.251,82.73L267.36,82.73ZM299.143,82.73L299.143,69.093L307.089,69.093L307.089,82.73L299.143,82.73Z" style="fill:rgb(255,0,0);"/>
        </g>
        <g transform="matrix(0.227109,-0.00173664,0.00173664,0.227109,252.406,31.6541)">
            <path d="M179.956,82.73L179.956,69.093L187.902,69.093L187.902,82.73L179.956,82.73ZM203.793,82.73L203.793,69.093L219.685,69.093L219.685,82.73L203.793,82.73ZM235.577,82.73L235.577,69.093L251.468,69.093L251.468,82.73L235.577,82.73ZM267.36,82.73L267.36,69.093L283.251,69.093L283.251,82.73L267.36,82.73ZM299.143,82.73L299.143,69.093L307.089,69.093L307.089,82.73L299.143,82.73Z" style="fill:rgb(255,0,0);"/>
        </g>
        <g transform="matrix(-0.00173664,-0.227109,0.227109,-0.00173664,235.197,76.1432)">
            <path d="M179.956,82.73L179.956,69.093L187.902,69.093L187.902,82.73L179.956,82.73ZM203.793,82.73L203.793,69.093L219.685,69.093L219.685,82.73L203.793,82.73ZM235.577,82.73L235.577,69.093L251.468,69.093L251.468,82.73L235.577,82.73ZM267.36,82.73L267.36,69.093L283.251,69.093L283.251,82.73L267.36,82.73ZM299.143,82.73L299.143,69.093L307.089,69.093L307.089,82.73L299.143,82.73Z" style="fill:rgb(255,0,0);"/>
        </g>
        <g transform="matrix(-0.00173664,-0.227109,0.227109,-0.00173664,235.733,146.13)">
            <path d="M179.956,75.912L307.089,75.912" style="fill:none;stroke:rgb(255,0,0);stroke-width:13.64px;stroke-linejoin:round;stroke-miterlimit:1.5;"/>
        </g>
        <g transform="matrix(0.359997,-0.0027528,0.00173664,0.227109,105.468,32.7777)">
            <path d="M179.956,75.912L307.089,75.912" style="fill:none;stroke:rgb(255,0,0);stroke-width:10.29px;stroke-linejoin:round;stroke-miterlimit:1.5;"/>
        </g>
        <g transform="matrix(0.16576,-0.00126752,0.00173664,0.227109,242.372,31.7309)">
            <path d="M179.956,75.912L307.089,75.912" style="fill:none;stroke:rgb(255,0,0);stroke-width:15.58px;stroke-linejoin:round;stroke-miterlimit:1.5;"/>
        </g>
        <g transform="matrix(-0.000996973,-0.130379,0.227109,-0.00173664,235.064,58.7361)">
            <path d="M179.956,75.912L307.089,75.912" style="fill:none;stroke:rgb(255,0,0);stroke-width:16.73px;stroke-linejoin:round;stroke-miterlimit:1.5;"/>
        </g>
    </g>
    <g transform="matrix(1,0,0,1,0,-12.5955)">
        <g transform="matrix(1,0,0,1,-385.242,108.715)">
            <g transform="matrix(1,0,0,1,409.58,53.7156)">
                <text x="0px" y="0px" style="font-family:'LatinModernMath-Regular', 'Latin Modern Math';font-size:15px;">Nœud</text>
            </g>
            <g transform="matrix(0,1,-1,0,499.699,-341.21)">
                <circle cx="389.803" cy="109.897" r="4.56"/>
            </g>
            <g transform="matrix(0,1,-1,0,565.054,-403.854)">
                <circle cx="389.803" cy="109.897" r="4.56"/>
            </g>
            <g transform="matrix(0,1,-1,0,565.054,-433.889)">
                <circle cx="389.803" cy="109.897" r="4.56"/>
            </g>
            <g transform="matrix(0,1,-1,0,604.07,-403.854)">
                <circle cx="389.803" cy="109.897" r="4.56"/>
            </g>
            <g transform="matrix(0,1,-1,0,542.985,-403.854)">
                <circle cx="389.803" cy="109.897" r="4.56"/>
            </g>
            <g transform="matrix(0,1,-1,0,565.055,-388.755)">
                <circle cx="389.803" cy="109.897" r="4.56"/>
            </g>
            <g transform="matrix(0,1,-1,0,767.007,-403.855)">
                <circle cx="389.803" cy="109.897" r="4.56"/>
            </g>
            <g transform="matrix(0,1,-1,0,811.947,-403.855)">
                <circle cx="389.803" cy="109.897" r="4.56"/>
            </g>
            <g transform="matrix(0,1,-1,0,961.114,-431.329)">
                <circle cx="389.803" cy="109.897" r="4.56"/>
            </g>
            <g transform="matrix(0,1,-1,0,939.386,-403.855)">
                <circle cx="389.803" cy="109.897" r="4.56"/>
            </g>
            <g transform="matrix(0,1,-1,0,1001.52,-403.855)">
                <circle cx="389.803" cy="109.897" r="4.56"/>
            </g>
            <g transform="matrix(0,1,-1,0,982.809,-380.147)">
                <circle cx="389.803" cy="109.897" r="4.56"/>
            </g>
            <g transform="matrix(0,1,-1,0,767.639,-433.89)">
                <circle cx="389.803" cy="109.897" r="4.56"/>
            </g>
            <g transform="matrix(0,1,-1,0,727.006,-403.855)">
                <circle cx="389.803" cy="109.897" r="4.56"/>
            </g>
        </g>
        <g transform="matrix(1,0,0,1,-139.817,61.79)">
            <g transform="matrix(1,0,0,1,409.535,100.97)">
                <text x="0px" y="0px" style="font-family:'LatinModernMath-Regular', 'Latin Modern Math';font-size:15px;">Branche</text>
            </g>
            <g transform="matrix(1,0,0,-1,0,255.129)">
                <path d="M377.691,159.281L401.914,159.281" style="fill:none;fill-rule:nonzero;stroke:rgb(255,0,0);stroke-width:3.4px;"/>
            </g>
        </g>
        <g transform="matrix(1,0,0,1,-302.574,84.4039)">
            <g transform="matrix(1,0,0,1,409.235,78.1916)">
                <text x="0px" y="0px" style="font-family:'LatinModernMath-Regular', 'Latin Modern Math';font-size:15px;">Cœur de carrefour</text>
            </g>
            <g transform="matrix(1,0,0,-1,-0.57,232.35)">
                <path d="M377.691,159.281L401.914,159.281" style="fill:none;fill-rule:nonzero;stroke:black;stroke-width:3.4px;"/>
            </g>
        </g>
    </g>
</svg>
