<?xml version="1.0" encoding="UTF-8" standalone="no"?>
<!DOCTYPE svg PUBLIC "-//W3C//DTD SVG 1.1//EN" "http://www.w3.org/Graphics/SVG/1.1/DTD/svg11.dtd">
<svg width="100%" height="100%" viewBox="0 0 545 150" version="1.1" xmlns="http://www.w3.org/2000/svg" xmlns:xlink="http://www.w3.org/1999/xlink" xml:space="preserve" xmlns:serif="http://www.serif.com/" style="fill-rule:evenodd;clip-rule:evenodd;">
    <g transform="matrix(-1.09772,-0.00839396,0.00839396,-1.09772,346.384,137.86)">
        <g transform="matrix(1.10962,1.64799e-17,1.99983e-17,0.641205,-41.8762,19.3939)">
            <path d="M176.728,121.59L252.708,121.313L307.027,117.096" style="fill:none;fill-rule:nonzero;stroke:black;stroke-width:3.42px;"/>
        </g>
        <g transform="matrix(-1.10879,0.0249376,-0.0431552,-0.640721,307.37,112.403)">
            <path d="M137.459,28.827L217.152,31.887L261.763,32.548" style="fill:none;fill-rule:nonzero;stroke:black;stroke-width:3.35px;"/>
        </g>
        <g transform="matrix(-1.10879,0.0249376,-0.0431552,-0.640721,269.137,92.8684)">
            <path d="M137.459,28.827L182.168,30.808L228.193,30.422" style="fill:none;fill-rule:nonzero;stroke:rgb(255,204,0);stroke-width:3.35px;"/>
        </g>
        <g transform="matrix(-0.00848477,-0.641187,-1.10959,0.00490299,180.162,207.551)">
            <path d="M202.754,56.281L242.812,56.742" style="fill:none;fill-rule:nonzero;stroke:rgb(255,204,0);stroke-width:3.4px;"/>
        </g>
        <g transform="matrix(-0.0593881,-0.640287,1.10803,-0.0343179,26.3248,210.776)">
            <path d="M242.763,93.168L335.935,126.359" style="fill:none;fill-rule:nonzero;stroke:rgb(255,204,0);stroke-width:3.51px;"/>
        </g>
        <g transform="matrix(1.10962,1.64799e-17,1.99983e-17,0.641205,-42.0421,41.2366)">
            <path d="M176.728,121.59L307.254,120.741" style="fill:none;fill-rule:nonzero;stroke:rgb(255,0,255);stroke-width:3.42px;"/>
        </g>
        <g transform="matrix(-1.10879,0.0249376,-0.0431552,-0.640721,307.204,134.245)">
            <path d="M137.459,28.827L216.605,32.302L261.278,34.952" style="fill:none;fill-rule:nonzero;stroke:rgb(255,0,255);stroke-width:3.35px;"/>
        </g>
        <g transform="matrix(1.10799,-0.0348144,0.0602474,0.64026,54.5335,-37.7562)">
            <path d="M113.083,184.03L155.714,186.248L209.731,187.695" style="fill:none;fill-rule:nonzero;stroke:rgb(0,255,255);stroke-width:3.33px;"/>
        </g>
        <g transform="matrix(-0.00848477,-0.641187,-1.10959,0.00490299,255.194,205.842)">
            <path d="M202.754,56.281L241.76,56.694L335.94,94.907" style="fill:none;fill-rule:nonzero;stroke:rgb(0,255,255);stroke-width:3.4px;"/>
        </g>
        <g transform="matrix(-0.00848477,-0.641187,-1.10959,0.00490299,218.394,227.085)">
            <path d="M202.754,56.281L368.495,61.159" style="fill:none;fill-rule:nonzero;stroke:black;stroke-width:3.4px;"/>
        </g>
    </g>
    <g transform="matrix(0,1,-1,0,525.137,-275.387)">
        <path d="M289,168.125L425.024,168.125" style="fill:none;fill-rule:nonzero;stroke:black;stroke-width:0.75px;"/>
    </g>
    <g transform="matrix(1,0,0,1,0,-12.5955)">
        <g transform="matrix(0,1,-1,0,499.699,-339.641)">
            <circle cx="389.803" cy="109.897" r="4.56"/>
        </g>
        <g transform="matrix(0,1,-1,0,288.73,-371.488)">
            <circle cx="389.803" cy="109.897" r="4.56"/>
        </g>
        <g transform="matrix(0,1,-1,0,439.717,-369.415)">
            <circle cx="389.803" cy="109.897" r="4.56"/>
        </g>
        <g transform="matrix(0,1,-1,0,439.717,-346.799)">
            <circle cx="389.803" cy="109.897" r="4.56"/>
        </g>
        <g transform="matrix(0,1,-1,0,439.717,-326.265)">
            <circle cx="389.803" cy="109.897" r="4.56"/>
        </g>
        <g transform="matrix(0,1,-1,0,330.169,-325.162)">
            <circle cx="389.803" cy="109.897" r="4.56"/>
        </g>
        <g transform="matrix(0,1,-1,0,330.169,-297.705)">
            <circle cx="389.803" cy="109.897" r="4.56"/>
        </g>
        <g transform="matrix(0,1,-1,0,294.396,-232.765)">
            <circle cx="389.803" cy="109.897" r="4.56"/>
        </g>
        <g transform="matrix(1,0,0,1,430.496,55.2845)">
            <text x="0px" y="0px" style="font-family:'LatinModernMath-Regular', 'Latin Modern Math';font-size:15px;">Nœud</text>
        </g>
        <g transform="matrix(1,0,0,1,0,-48.374)">
            <g transform="matrix(1,0,0,1,430.451,149.217)">
                <text x="0px" y="0px" style="font-family:'LatinModernMath-Regular', 'Latin Modern Math';font-size:15px;">Trottoir 1</text>
            </g>
            <g transform="matrix(1,0,0,-1,0,303.503)">
                <path d="M377.691,159.281L401.914,159.281" style="fill:none;fill-rule:nonzero;stroke:rgb(255,0,255);stroke-width:3.4px;"/>
            </g>
        </g>
        <g transform="matrix(1,0,0,1,-0.57,-65.5049)">
            <g transform="matrix(1,0,0,1,430.721,142.406)">
                <text x="0px" y="0px" style="font-family:'LatinModernMath-Regular', 'Latin Modern Math';font-size:15px;">Graphe routier</text>
            </g>
            <g transform="matrix(1,0,0,-1,0,297.855)">
                <path d="M377.691,159.281L401.914,159.281" style="fill:none;fill-rule:nonzero;stroke:black;stroke-width:3.4px;"/>
            </g>
        </g>
        <g transform="matrix(1,0,0,1,0,-60.8586)">
            <g transform="matrix(1,0,0,1,430.451,182.898)">
                <text x="0px" y="0px" style="font-family:'LatinModernMath-Regular', 'Latin Modern Math';font-size:15px;">Trottoir 2</text>
            </g>
            <g transform="matrix(1,0,0,-1,0,363.825)">
                <path d="M377.691,185.922L401.914,185.922" style="fill:none;fill-rule:nonzero;stroke:rgb(255,204,0);stroke-width:3.4px;"/>
            </g>
        </g>
        <g transform="matrix(1,0,0,1,-0.57,-69.0705)">
            <g transform="matrix(1,0,0,1,431.021,212.307)">
                <text x="0px" y="0px" style="font-family:'LatinModernMath-Regular', 'Latin Modern Math';font-size:15px;">Trottoir 3</text>
            </g>
            <g transform="matrix(1,0,0,-1,0,417.421)">
                <path d="M377.691,210.027L401.914,210.027" style="fill:none;fill-rule:nonzero;stroke:rgb(0,255,255);stroke-width:3.4px;"/>
            </g>
        </g>
        <g transform="matrix(0,1,-1,0,247.229,-297.55)">
            <circle cx="389.803" cy="109.897" r="4.56"/>
        </g>
        <g transform="matrix(0,1,-1,0,247.229,-324.503)">
            <circle cx="389.803" cy="109.897" r="4.56"/>
        </g>
        <g transform="matrix(0,1,-1,0,129.826,-324.503)">
            <circle cx="389.803" cy="109.897" r="4.56"/>
        </g>
        <g transform="matrix(0,1,-1,0,129.826,-345.207)">
            <circle cx="389.803" cy="109.897" r="4.56"/>
        </g>
        <g transform="matrix(0,1,-1,0,129.826,-372.108)">
            <circle cx="389.803" cy="109.897" r="4.56"/>
        </g>
        <g transform="matrix(0,1,-1,0,288.167,-347.514)">
            <circle cx="389.803" cy="109.897" r="4.56"/>
        </g>
        <g transform="matrix(0,1,-1,0,499.699,-339.641)">
            <circle cx="389.803" cy="109.897" r="4.56"/>
        </g>
        <g transform="matrix(0,1,-1,0,385.43,-325.162)">
            <circle cx="389.803" cy="109.897" r="4.56"/>
        </g>
        <g transform="matrix(0,1,-1,0,385.43,-347.514)">
            <circle cx="389.803" cy="109.897" r="4.56"/>
        </g>
        <g transform="matrix(0,1,-1,0,385.43,-370.452)">
            <circle cx="389.803" cy="109.897" r="4.56"/>
        </g>
        <g transform="matrix(0,1,-1,0,194.479,-348.027)">
            <circle cx="389.803" cy="109.897" r="4.56"/>
        </g>
        <g transform="matrix(0,1,-1,0,194.479,-324.851)">
            <circle cx="389.803" cy="109.897" r="4.56"/>
        </g>
        <g transform="matrix(0,1,-1,0,194.479,-372.108)">
            <circle cx="389.803" cy="109.897" r="4.56"/>
        </g>
        <g transform="matrix(0,1,-1,0,290.959,-298.824)">
            <circle cx="389.803" cy="109.897" r="4.56"/>
        </g>
    </g>
</svg>
